<?xml version="1.0" standalone="no"?><!DOCTYPE svg PUBLIC "-//W3C//DTD SVG 1.1//EN" "http://www.w3.org/Graphics/SVG/1.1/DTD/svg11.dtd"><svg t="1597902936272" class="icon" viewBox="0 0 1024 1024" version="1.1" xmlns="http://www.w3.org/2000/svg" p-id="1884" xmlns:xlink="http://www.w3.org/1999/xlink" width="100" height="100"><defs><style type="text/css"></style></defs><path d="M748.4 210.9H44c-11 0-20-9-20-20s9-20 20-20h704.4c11 0 20 9 20 20s-8.9 20-20 20z" fill="#1C1C1C" p-id="1885"></path><path d="M396.2 915.1c-11 0-20-9-20-20V196.6c0-11 9-20 20-20s20 9 20 20v698.5c0 11.1-8.9 20-20 20z" fill="#1C1C1C" p-id="1886"></path><path d="M996 498H578.8c-11 0-20-9-20-20s9-20 20-20H996c11 0 20 9 20 20s-8.9 20-20 20z" fill="#1C1C1C" p-id="1887"></path><path d="M787.4 915.1c-11 0-20-9-20-20V481.4c0-11 9-20 20-20s20 9 20 20v413.8c0 11-8.9 19.9-20 19.9z" fill="#1C1C1C" p-id="1888"></path></svg>